<svg width="159" height="59" viewBox="0 0 159 59" fill="none" xmlns="http://www.w3.org/2000/svg">
<path d="M153.658 -22.2725C153.658 19.7381 119.485 53.9111 77.4742 53.9111C35.4636 53.9111 1.29056 19.7381 1.29056 -22.2725C1.29056 -64.2831 35.4636 -98.4562 77.4742 -98.4562C119.485 -98.4562 153.658 -64.2831 153.658 -22.2725ZM154.948 -22.2725C154.948 -65.0628 120.264 -99.7467 77.4742 -99.7467C34.6839 -99.7467 0 -65.0628 0 -22.2725C0 20.5178 34.6839 55.2017 77.4742 55.2017C120.264 55.2017 154.948 20.5043 154.948 -22.2725Z" fill="#7F7F7F"/>
<path d="M133.291 -22.2725C133.291 8.55317 108.3 33.5579 77.4608 33.5579C46.6351 33.5579 21.6304 8.56661 21.6304 -22.2725C21.6304 -53.0982 46.6217 -78.1029 77.4608 -78.1029C108.3 -78.1029 133.291 -53.1116 133.291 -22.2725ZM134.716 -22.2725C134.716 -53.8376 109.039 -79.5144 77.4742 -79.5144C45.9092 -79.5144 20.2323 -53.8376 20.2323 -22.2725C20.2323 9.29256 45.9092 34.9694 77.4742 34.9694C109.039 34.9694 134.716 9.27911 134.716 -22.2725Z" fill="#7F7F7F"/>
<path d="M130.428 -22.2725C130.428 6.98029 106.714 30.681 77.4742 30.681V58.455C122.066 58.455 158.202 22.3057 158.202 -22.2725C158.202 -66.8642 122.052 -103 77.4742 -103V-75.226C106.714 -75.2394 130.428 -51.5253 130.428 -22.2725Z" fill="#DEF9F3"/>
</svg>
