<svg width="58" height="63" viewBox="0 0 58 63" fill="none" xmlns="http://www.w3.org/2000/svg">
<rect x="1.36646" y="15.6338" width="45" height="45" transform="rotate(-17.1474 1.36646 15.6338)" fill="#DEF9F3"/>
<path d="M6.63554 56.3086C6.53536 56.2189 6.48108 56.0982 6.46369 55.9564L3.91069 9.99964C3.90331 9.86676 3.95289 9.73073 4.04253 9.63055C4.13217 9.53036 4.26188 9.46601 4.39475 9.45863L50.3515 6.90569C50.6173 6.89093 50.8677 7.115 50.8825 7.38076L53.4355 53.3375C53.4428 53.4704 53.3933 53.6064 53.3036 53.7066C53.214 53.8068 53.0843 53.8711 52.9514 53.8785L14.8154 55.997C14.5307 56.0128 14.3003 55.8067 14.2845 55.5219L12.1659 17.386C12.1501 17.1012 12.3563 16.8708 12.641 16.855L42.9562 15.171C43.222 15.1562 43.4724 15.3803 43.4871 15.646L45.1712 45.9612C45.187 46.2459 44.9809 46.4764 44.6961 46.4922L22.012 47.7523C21.7462 47.7671 21.4957 47.5429 21.481 47.2772L21.0571 39.6462L20.2209 24.5931C20.2051 24.3084 20.4112 24.0779 20.696 24.0621L35.7681 23.2248C36.0339 23.2101 36.2843 23.4341 36.2991 23.6999L37.1363 38.772C37.1522 39.0568 36.946 39.2872 36.6613 39.303L22.1017 40.1118L22.4697 46.7367L44.1477 45.5325L42.5196 16.2234L13.2105 17.8516L15.2731 54.9814L52.403 52.9188L49.9059 7.96815L4.95526 10.4652L7.48081 55.9285C7.49663 56.2132 7.29046 56.4436 7.00572 56.4594C6.86177 56.4389 6.72571 56.3893 6.63554 56.3086ZM21.2544 25.0307L22.0357 39.0968L36.0918 38.3064L35.3204 24.2493L21.2544 25.0307Z" fill="#7F7F7F"/>
</svg>
