<svg width="191" height="224" viewBox="0 0 191 224" fill="none" xmlns="http://www.w3.org/2000/svg">
<path d="M-67 112.201H61.3966L125.604 1H-2.79254L-67 112.201Z" stroke="#7F7F7F" stroke-miterlimit="10" stroke-linejoin="round"/>
<path d="M-67 112.201H61.3966L125.604 223.403H-2.79254L-67 112.201Z" stroke="#7F7F7F" stroke-miterlimit="10" stroke-linejoin="round"/>
<path d="M99.4089 46.3659H23.4027L-14.6096 112.201L23.4027 178.019H99.4089L137.403 112.201L99.4089 46.3659Z" fill="#7F7F7F"/>
<path d="M99.4089 46.3659H23.4027L-14.6096 112.201L23.4027 178.019H99.4089L137.403 112.201L99.4089 46.3659Z" fill="#DEF9F3"/>
<path d="M125.604 1H-2.79254L-67 112.201L-2.79254 223.403H125.604L189.811 112.201L125.604 1Z" stroke="#7F7F7F" stroke-miterlimit="10" stroke-linejoin="round"/>
<path d="M-2.79254 1L61.3966 112.201L-2.79254 223.403L-67 112.201L-2.79254 1Z" stroke="#7F7F7F" stroke-miterlimit="10" stroke-linejoin="round"/>
<path d="M61.3967 112.201H189.812L125.604 223.403H-2.79248L61.3967 112.201Z" stroke="#7F7F7F" stroke-miterlimit="10" stroke-linecap="round" stroke-linejoin="round"/>
</svg>
