<svg width="96" height="104" viewBox="0 0 96 104" fill="none" xmlns="http://www.w3.org/2000/svg">
<path d="M48.0725 102.27L5.64251 59.84C4.97251 59.17 4.97251 58.08 5.64251 57.41L48.0725 14.98C48.7425 14.31 49.8325 14.31 50.5025 14.98L92.9325 57.41C93.6025 58.08 93.6025 59.17 92.9325 59.84L50.5025 102.27C49.8325 102.94 48.7425 102.94 48.0725 102.27Z" stroke="#7F7F7F" stroke-width="1.7707" stroke-miterlimit="10"/>
<path d="M50.1625 1.98001C50.7093 1.98001 51.1525 1.53677 51.1525 0.990005C51.1525 0.443244 50.7093 0 50.1625 0C49.6157 0 49.1725 0.443244 49.1725 0.990005C49.1725 1.53677 49.6157 1.98001 50.1625 1.98001Z" fill="#1DECBE"/>
<path d="M61.8624 12.7C61.4724 13.09 60.8424 13.09 60.4624 12.7C60.0724 12.31 60.0724 11.68 60.4624 11.3C60.8524 10.91 61.4824 10.91 61.8624 11.3C62.2524 11.68 62.2524 12.31 61.8624 12.7Z" fill="#1DECBE"/>
<path d="M72.8725 23.71C72.4825 24.1 71.8524 24.1 71.4724 23.71C71.0824 23.32 71.0824 22.69 71.4724 22.31C71.8624 21.92 72.4925 21.92 72.8725 22.31C73.2625 22.69 73.2625 23.32 72.8725 23.71Z" fill="#1DECBE"/>
<path d="M83.8725 34.71C83.4825 35.1 82.8524 35.1 82.4724 34.71C82.0824 34.32 82.0824 33.69 82.4724 33.31C82.8624 32.92 83.4925 32.92 83.8725 33.31C84.2625 33.69 84.2625 34.32 83.8725 34.71Z" fill="#1DECBE"/>
<path d="M94.1825 46C94.7293 46 95.1725 45.5568 95.1725 45.01C95.1725 44.4633 94.7293 44.02 94.1825 44.02C93.6357 44.02 93.1925 44.4633 93.1925 45.01C93.1925 45.5568 93.6357 46 94.1825 46Z" fill="#1DECBE"/>
<path d="M41.0226 11.53C40.6326 11.92 40.0026 11.92 39.6226 11.53C39.2326 11.14 39.2326 10.51 39.6226 10.13C40.0126 9.74002 40.6426 9.74002 41.0226 10.13C41.4126 10.51 41.4126 11.14 41.0226 11.53Z" fill="#1DECBE"/>
<path d="M51.3325 22.82C51.8793 22.82 52.3225 22.3768 52.3225 21.83C52.3225 21.2833 51.8793 20.84 51.3325 20.84C50.7858 20.84 50.3425 21.2833 50.3425 21.83C50.3425 22.3768 50.7858 22.82 51.3325 22.82Z" fill="#1DECBE"/>
<path d="M62.3326 33.83C62.8793 33.83 63.3226 33.3868 63.3226 32.84C63.3226 32.2933 62.8793 31.85 62.3326 31.85C61.7858 31.85 61.3425 32.2933 61.3425 32.84C61.3425 33.3868 61.7858 33.83 62.3326 33.83Z" fill="#1DECBE"/>
<path d="M73.3425 44.83C73.8893 44.83 74.3326 44.3868 74.3326 43.84C74.3326 43.2933 73.8893 42.85 73.3425 42.85C72.7958 42.85 72.3525 43.2933 72.3525 43.84C72.3525 44.3868 72.7958 44.83 73.3425 44.83Z" fill="#1DECBE"/>
<path d="M84.3425 55.84C84.8893 55.84 85.3326 55.3968 85.3326 54.85C85.3326 54.3033 84.8893 53.86 84.3425 53.86C83.7958 53.86 83.3525 54.3033 83.3525 54.85C83.3525 55.3968 83.7958 55.84 84.3425 55.84Z" fill="#1DECBE"/>
<path d="M31.1925 21.36C30.8025 21.75 30.1725 21.75 29.7925 21.36C29.4025 20.97 29.4025 20.34 29.7925 19.96C30.1825 19.57 30.8125 19.57 31.1925 19.96C31.5825 20.35 31.5825 20.98 31.1925 21.36Z" fill="#1DECBE"/>
<path d="M41.4926 32.66C42.0393 32.66 42.4825 32.2168 42.4825 31.67C42.4825 31.1232 42.0393 30.68 41.4926 30.68C40.9458 30.68 40.5026 31.1232 40.5026 31.67C40.5026 32.2168 40.9458 32.66 41.4926 32.66Z" fill="#1DECBE"/>
<path d="M52.5025 43.66C53.0492 43.66 53.4925 43.2168 53.4925 42.67C53.4925 42.1232 53.0492 41.68 52.5025 41.68C51.9557 41.68 51.5125 42.1232 51.5125 42.67C51.5125 43.2168 51.9557 43.66 52.5025 43.66Z" fill="#1DECBE"/>
<path d="M63.5026 54.67C64.0493 54.67 64.4926 54.2268 64.4926 53.68C64.4926 53.1332 64.0493 52.69 63.5026 52.69C62.9558 52.69 62.5126 53.1332 62.5126 53.68C62.5126 54.2268 62.9558 54.67 63.5026 54.67Z" fill="#1DECBE"/>
<path d="M75.2125 65.38C74.8225 65.77 74.1925 65.77 73.8125 65.38C73.4225 64.99 73.4225 64.36 73.8125 63.98C74.2025 63.59 74.8325 63.59 75.2125 63.98C75.6025 64.37 75.6025 65 75.2125 65.38Z" fill="#1DECBE"/>
<path d="M21.3625 31.2C20.9725 31.59 20.3425 31.59 19.9625 31.2C19.5725 30.81 19.5725 30.18 19.9625 29.8C20.3525 29.41 20.9825 29.41 21.3625 29.8C21.7425 30.18 21.7425 30.81 21.3625 31.2Z" fill="#1DECBE"/>
<path d="M32.3625 42.2C31.9725 42.59 31.3425 42.59 30.9625 42.2C30.5725 41.81 30.5725 41.18 30.9625 40.8C31.3525 40.41 31.9825 40.41 32.3625 40.8C32.7525 41.19 32.7525 41.82 32.3625 42.2Z" fill="#1DECBE"/>
<path d="M42.6626 53.5C43.2094 53.5 43.6526 53.0568 43.6526 52.51C43.6526 51.9633 43.2094 51.52 42.6626 51.52C42.1159 51.52 41.6726 51.9633 41.6726 52.51C41.6726 53.0568 42.1159 53.5 42.6626 53.5Z" fill="#1DECBE"/>
<path d="M54.3725 64.21C53.9825 64.6 53.3526 64.6 52.9726 64.21C52.5826 63.82 52.5826 63.19 52.9726 62.81C53.3626 62.42 53.9925 62.42 54.3725 62.81C54.7625 63.2 54.7625 63.82 54.3725 64.21Z" fill="#1DECBE"/>
<path d="M65.3826 75.22C64.9926 75.61 64.3626 75.61 63.9826 75.22C63.5926 74.83 63.5926 74.2 63.9826 73.82C64.3726 73.43 65.0026 73.43 65.3826 73.82C65.7626 74.2 65.7626 74.83 65.3826 75.22Z" fill="#1DECBE"/>
<path d="M11.5226 41.03C11.1326 41.42 10.5026 41.42 10.1226 41.03C9.73258 40.64 9.73258 40.01 10.1226 39.63C10.5126 39.24 11.1426 39.24 11.5226 39.63C11.9126 40.02 11.9126 40.64 11.5226 41.03Z" fill="#1DECBE"/>
<path d="M21.8225 52.32C22.3693 52.32 22.8125 51.8768 22.8125 51.33C22.8125 50.7833 22.3693 50.34 21.8225 50.34C21.2757 50.34 20.8325 50.7833 20.8325 51.33C20.8325 51.8768 21.2757 52.32 21.8225 52.32Z" fill="#1DECBE"/>
<path d="M32.8325 63.33C33.3793 63.33 33.8225 62.8868 33.8225 62.34C33.8225 61.7933 33.3793 61.35 32.8325 61.35C32.2858 61.35 31.8425 61.7933 31.8425 62.34C31.8425 62.8868 32.2858 63.33 32.8325 63.33Z" fill="#1DECBE"/>
<path d="M43.8325 74.33C44.3793 74.33 44.8225 73.8868 44.8225 73.34C44.8225 72.7933 44.3793 72.35 43.8325 72.35C43.2858 72.35 42.8425 72.7933 42.8425 73.34C42.8425 73.8868 43.2858 74.33 43.8325 74.33Z" fill="#1DECBE"/>
<path d="M55.5426 85.05C55.1526 85.44 54.5226 85.44 54.1426 85.05C53.7526 84.66 53.7526 84.03 54.1426 83.65C54.5326 83.26 55.1626 83.26 55.5426 83.65C55.9326 84.03 55.9326 84.66 55.5426 85.05Z" fill="#1DECBE"/>
<path d="M1.69252 50.87C1.30252 51.26 0.6725 51.26 0.2925 50.87C-0.0975 50.48 -0.0975 49.85 0.2925 49.47C0.6825 49.08 1.31252 49.08 1.69252 49.47C2.08252 49.85 2.08252 50.48 1.69252 50.87Z" fill="#1DECBE"/>
<path d="M11.9926 62.16C12.5393 62.16 12.9825 61.7168 12.9825 61.17C12.9825 60.6233 12.5393 60.18 11.9926 60.18C11.4458 60.18 11.0026 60.6233 11.0026 61.17C11.0026 61.7168 11.4458 62.16 11.9926 62.16Z" fill="#1DECBE"/>
<path d="M23.0025 73.16C23.5492 73.16 23.9925 72.7168 23.9925 72.17C23.9925 71.6233 23.5492 71.18 23.0025 71.18C22.4557 71.18 22.0125 71.6233 22.0125 72.17C22.0125 72.7168 22.4557 73.16 23.0025 73.16Z" fill="#1DECBE"/>
<path d="M34.0025 84.17C34.5492 84.17 34.9925 83.7268 34.9925 83.18C34.9925 82.6332 34.5492 82.19 34.0025 82.19C33.4557 82.19 33.0125 82.6332 33.0125 83.18C33.0125 83.7268 33.4557 84.17 34.0025 84.17Z" fill="#1DECBE"/>
<path d="M45.7125 94.89C45.3225 95.28 44.6925 95.28 44.3125 94.89C43.9225 94.5 43.9225 93.87 44.3125 93.49C44.7025 93.1 45.3325 93.1 45.7125 93.49C46.1025 93.87 46.1025 94.5 45.7125 94.89Z" fill="#1DECBE"/>
</svg>
