<svg width="1440" height="39" viewBox="0 0 1440 39" fill="none" xmlns="http://www.w3.org/2000/svg">
<g opacity="0.1">
<path d="M-7 19L21.37 39L49.75 19L78.12 39L106.49 19L134.87 39L163.24 19L191.62 39L220 19" stroke="#010101" stroke-width="2" stroke-miterlimit="10" stroke-linecap="round" stroke-linejoin="round"/>
<path d="M-7 1L21.37 21L49.75 1L78.12 21L106.49 1L134.87 21L163.24 1L191.62 21L220 1" stroke="#808080" stroke-width="2" stroke-miterlimit="10" stroke-linecap="round" stroke-linejoin="round"/>
<path d="M220 19L248.37 39L276.75 19L305.12 39L333.49 19L361.87 39L390.24 19L418.62 39L447 19" stroke="#010101" stroke-width="2" stroke-miterlimit="10" stroke-linecap="round" stroke-linejoin="round"/>
<path d="M220 1L248.37 21L276.75 1L305.12 21L333.49 1L361.87 21L390.24 1L418.62 21L447 1" stroke="#808080" stroke-width="2" stroke-miterlimit="10" stroke-linecap="round" stroke-linejoin="round"/>
<path d="M447 19L475.37 39L503.75 19L532.12 39L560.49 19L588.87 39L617.24 19L645.62 39L674 19" stroke="#010101" stroke-width="2" stroke-miterlimit="10" stroke-linecap="round" stroke-linejoin="round"/>
<path d="M447 1L475.37 21L503.75 1L532.12 21L560.49 1L588.87 21L617.24 1L645.62 21L674 1" stroke="#808080" stroke-width="2" stroke-miterlimit="10" stroke-linecap="round" stroke-linejoin="round"/>
<path d="M674 19L702.37 39L730.75 19L759.12 39L787.49 19L815.87 39L844.24 19L872.62 39L901 19" stroke="#010101" stroke-width="2" stroke-miterlimit="10" stroke-linecap="round" stroke-linejoin="round"/>
<path d="M674 1L702.37 21L730.75 1L759.12 21L787.49 1L815.87 21L844.24 1L872.62 21L901 1" stroke="#808080" stroke-width="2" stroke-miterlimit="10" stroke-linecap="round" stroke-linejoin="round"/>
<path d="M901 19L929.37 39L957.75 19L986.12 39L1014.49 19L1042.87 39L1071.24 19L1099.62 39L1128 19" stroke="#010101" stroke-width="2" stroke-miterlimit="10" stroke-linecap="round" stroke-linejoin="round"/>
<path d="M901 1L929.37 21L957.75 1L986.12 21L1014.49 1L1042.87 21L1071.24 1L1099.62 21L1128 1" stroke="#808080" stroke-width="2" stroke-miterlimit="10" stroke-linecap="round" stroke-linejoin="round"/>
<path d="M1128 19L1156.37 39L1184.75 19L1213.12 39L1241.49 19L1269.87 39L1298.24 19L1326.62 39L1355 19" stroke="#010101" stroke-width="2" stroke-miterlimit="10" stroke-linecap="round" stroke-linejoin="round"/>
<path d="M1128 1L1156.37 21L1184.75 1L1213.12 21L1241.49 1L1269.87 21L1298.24 1L1326.62 21L1355 1" stroke="#808080" stroke-width="2" stroke-miterlimit="10" stroke-linecap="round" stroke-linejoin="round"/>
<path d="M1355 19L1383.37 39L1411.75 19L1440.12 39L1468.49 19L1496.87 39L1525.24 19L1553.62 39L1582 19" stroke="#010101" stroke-width="2" stroke-miterlimit="10" stroke-linecap="round" stroke-linejoin="round"/>
<path d="M1355 1L1383.37 21L1411.75 1L1440.12 21L1468.49 1L1496.87 21L1525.24 1L1553.62 21L1582 1" stroke="#808080" stroke-width="2" stroke-miterlimit="10" stroke-linecap="round" stroke-linejoin="round"/>
</g>
</svg>
