<svg width="155" height="23" viewBox="0 0 155 23" fill="none" xmlns="http://www.w3.org/2000/svg">
<path d="M107.319 2.54669L77.0306 -9.31038L46.7427 2.54669L16.4547 -9.31038L2.60802 -3.8927L0 -10.5741L16.4547 -17L46.7427 -5.15638L77.0306 -17L107.319 -5.15638L137.606 -17L154.048 -10.5741L151.44 -3.8927L137.606 -9.31038L107.319 2.54669Z" fill="#DEF9F3"/>
<path d="M107.319 22.0934L77.0306 10.2363L46.7427 22.0934L16.4547 10.2363L2.60802 15.654L0 8.98606L16.4547 2.54669L46.7427 14.4037L77.0306 2.54669L107.319 14.4037L137.606 2.54669L154.048 8.98606L151.44 15.654L137.606 10.2363L107.319 22.0934Z" fill="#7F7F7F"/>
<path d="M107.319 22.0934L77.0306 10.2363L46.7427 22.0934L16.4547 10.2363L2.60802 15.654L0 8.98606L16.4547 2.54669L46.7427 14.4037L77.0306 2.54669L107.319 14.4037L137.606 2.54669L154.048 8.98606L151.44 15.654L137.606 10.2363L107.319 22.0934Z" fill="#DEF9F3"/>
</svg>
