<svg width="73" height="24" viewBox="0 0 73 24" fill="none" xmlns="http://www.w3.org/2000/svg">
<path d="M11.8772 3.3316L6.32507 0.118652L0.772949 3.3316V9.74412L6.32507 12.9571L11.8772 9.74412V3.3316Z" fill="#DEF9F3"/>
<path d="M38.7371 3.3316L33.185 0.118652L27.6194 3.3316V9.74412L33.185 12.9571L38.7371 9.74412V3.3316Z" fill="#DEF9F3"/>
<path d="M65.5835 3.3316L60.0314 0.118652L54.4792 3.3316V9.74412L60.0314 12.9571L65.5835 9.74412V3.3316Z" fill="#DEF9F3"/>
<path d="M34.3411 14.3149V20.7273L39.8932 23.9269L45.4453 20.7273V14.3149L39.8932 11.1019L34.3411 14.3149Z" fill="#DEF9F3"/>
<path d="M47.7576 14.3149V20.7273L53.3231 23.9269L58.8753 20.7273V14.3149L53.3231 11.1019L47.7576 14.3149Z" fill="#DEF9F3"/>
<path d="M61.1875 14.3149V20.7273L66.7396 23.9269L72.3052 20.7273V14.3149L66.7396 11.1019L61.1875 14.3149Z" fill="#DEF9F3"/>
</svg>
