<svg width="68" height="80" viewBox="0 0 68 80" fill="none" xmlns="http://www.w3.org/2000/svg">
<path d="M27.24 69.34C28.3225 69.34 29.2 68.4625 29.2 67.38C29.2 66.2975 28.3225 65.42 27.24 65.42C26.1575 65.42 25.28 66.2975 25.28 67.38C25.28 68.4625 26.1575 69.34 27.24 69.34Z" fill="white"/>
<path d="M4.10997 44.25C4.87997 43.48 6.11997 43.48 6.88997 44.25C7.65997 45.02 7.65997 46.26 6.88997 47.03C6.11997 47.8 4.87997 47.8 4.10997 47.03C3.33997 46.26 3.33997 45.02 4.10997 44.25Z" fill="white"/>
<path d="M45.2801 46.57C46.0501 45.8 47.2901 45.8 48.0601 46.57C48.8301 47.34 48.8301 48.58 48.0601 49.35C47.2901 50.12 46.0501 50.12 45.2801 49.35C44.5101 48.57 44.5101 47.33 45.2801 46.57Z" fill="white"/>
<path d="M23.5399 24.82C24.3099 24.05 25.5499 24.05 26.3199 24.82C27.0899 25.59 27.0899 26.83 26.3199 27.6C25.5499 28.37 24.3099 28.37 23.5399 27.6C22.7699 26.83 22.7699 25.59 23.5399 24.82Z" fill="white"/>
<path d="M3.17996 6.42999C4.26244 6.42999 5.13995 5.55248 5.13995 4.47C5.13995 3.38752 4.26244 2.50998 3.17996 2.50998C2.09748 2.50998 1.21997 3.38752 1.21997 4.47C1.21997 5.55248 2.09748 6.42999 3.17996 6.42999Z" fill="white"/>
<path d="M53.5301 14.66L35.5001 32.69L17.4701 14.66L3.33008 28.8L21.3601 46.84L3.33008 64.87L17.4701 79.01L35.5001 60.98L53.5301 79.01L67.6801 64.87L49.6501 46.84L67.6801 28.8L53.5301 14.66Z" fill="#D9D9D9"/>
<path d="M53.5301 14.66L35.5001 32.69L17.4701 14.66L3.33008 28.8L21.3601 46.84L3.33008 64.87L17.4701 79.01L35.5001 60.98L53.5301 79.01L67.6801 64.87L49.6501 46.84L67.6801 28.8L53.5301 14.66Z" fill="#DEF9F3"/>
<path d="M51.2 1L33.17 19.03L15.14 1L1 15.14L19.03 33.17L1 51.2L15.14 65.34L33.17 47.31L51.2 65.34L65.34 51.2L47.31 33.17L65.34 15.14L51.2 1Z" stroke="#808080" stroke-width="2" stroke-miterlimit="10" stroke-linecap="round" stroke-linejoin="round"/>
</svg>
